<svg xmlns="http://www.w3.org/2000/svg" xmlns:xlink="http://www.w3.org/1999/xlink" version="1.1" x="0px" y="0px" viewBox="0 0 100 125" enable-background="new 0 0 100 100" xml:space="preserve"><path fill="none" stroke="#000000" stroke-width="2" stroke-linecap="round" stroke-linejoin="round" stroke-miterlimit="10" d="  M73.333,13.587c0.854-0.839,1.409-2.066,1.409-3.453c0-2.527-1.801-4.574-4.023-4.574c-1.39,0-2.613,0.799-3.337,2.016  c-1.766-1.231-3.522-2.016-4.955-2.016h-22.13c-1.222,0-2.603,0.631-3.984,1.665c-0.733-1.133-1.904-1.877-3.237-1.877  c-2.223,0-4.024,2.048-4.024,4.575c0,1.525,0.664,2.867,1.673,3.698c-1.625,2.646-2.722,5.452-2.722,7.588v63.714  c0,5.558,3.964,10.062,8.853,10.062H67.1c4.889,0,8.854-4.504,8.854-10.062V20.091C75.951,18.162,74.896,15.822,73.333,13.587z   M28.003,56.839v14.53c0,4.245,3.027,7.686,6.761,7.686c3.735,0,6.762-3.439,6.762-7.686v-14.53 M62.477,56.839v14.53  c0,4.245,3.026,7.686,6.762,7.686c3.734,0,6.763-3.439,6.763-7.686v-14.53 M18.134,94.984H86.25 M45.734,36.718h12.54   M45.734,36.718h12.54 M40.292,31.323c0-1.896-1.537-3.436-3.435-3.436s-3.437,1.539-3.437,3.436c0,1.898,1.538,3.436,3.437,3.436  C38.755,34.759,40.292,33.221,40.292,31.323 M40.292,31.323c0-1.896-1.537-3.436-3.435-3.436s-3.437,1.539-3.437,3.436  c0,1.898,1.538,3.436,3.437,3.436C38.755,34.759,40.292,33.221,40.292,31.323z M70.128,31.323c0-1.896-1.538-3.436-3.435-3.436  c-1.897,0-3.436,1.539-3.436,3.436c0,1.898,1.537,3.436,3.436,3.436C68.59,34.759,70.128,33.221,70.128,31.323 M70.128,31.323  c0-1.896-1.538-3.436-3.435-3.436c-1.897,0-3.436,1.539-3.436,3.436c0,1.898,1.537,3.436,3.436,3.436  C68.59,34.759,70.128,33.221,70.128,31.323z"/><text x="0" y="115" fill="#000000" font-size="5px" font-weight="bold" font-family="'Helvetica Neue', Helvetica, Arial-Unicode, Arial, Sans-serif">Created by Nicole Yip</text><text x="0" y="120" fill="#000000" font-size="5px" font-weight="bold" font-family="'Helvetica Neue', Helvetica, Arial-Unicode, Arial, Sans-serif">from the Noun Project</text></svg>